<?xml version="1.0" encoding="UTF-8"?><svg id="Layer_1" xmlns="http://www.w3.org/2000/svg" viewBox="0 0 1920 1080"><defs><style>.cls-1{fill:#304b96;}.cls-2{fill:#304c96;}.cls-3{fill:#304c97;}.cls-4{fill:#5586b9;}.cls-5{fill:#4fb2b1;}.cls-6{fill:#4eb2b1;}</style></defs><path class="cls-4" d="M1682.59,476.4v36.96c-45.71-.01-91.41-.02-137.12-.03,1.19-2,3.1-.93,4.62-.93,41.61-.07,83.21-.05,124.81-.06,1.5,0,3-.01,4.5-.04,1.37-.03,2.16-.71,2.21-2.12,.04-1.16,.05-2.33,.06-3.49,.01-10.13,.03-20.27,.04-30.4,.3,.02,.59,.06,.88,.11Z"/><path class="cls-1" d="M435.51,554.93c0,10.65,.02,21.31-.02,31.96-.01,3.54-.09,3.54-3.58,3.65-.84,.03-1.67,.01-2.5,.01-61.99,0-123.97,0-185.95-.02-6.91,0-6.01,.82-6.02-6.16-.03-44.77,0-89.53,0-134.3s-.01-90.19,0-135.29c0-6-.65-5.45,5.24-5.45,60.15-.01,120.3-.01,180.45-.01h1c4.32,.07,4.37,.07,4.37,4.39,.02,15.98,.01,31.95,.01,47.93,0,5.16,.28,4.82-4.93,4.82-39.49,0-78.98-.01-118.47,.01-7.01,0-6.21-.79-6.23,6-.03,13.81,0,27.63,0,41.44,0,4.78-.29,4.64,4.6,4.64,37.15-.01,74.31-.02,111.47,.01,6.47,0,5.91-.94,5.92,5.77,.02,15.81,.02,31.62,0,47.43,0,4.52-.04,4.56-4.69,4.56-36.65,.01-73.31,0-109.97,0-1.16,0-2.33-.02-3.5,.01-3.74,.08-3.81,.09-3.82,3.92-.03,16.48-.03,32.95,0,49.43,.01,3.65,.09,3.71,4,3.71,16.66,.03,33.32,.01,49.98,.01h76.48c.83,0,1.67-.02,2.5,.01,3.56,.09,3.62,.09,3.65,3.55,.06,5.99,.02,11.98,.02,17.97Z"/><path class="cls-3" d="M1119.37,551.11c-10.14,13.39-22.83,23.68-37.67,31.37-15.56,8.08-32.16,12.59-49.62,14-27.89,2.27-54.92-1.56-80.54-12.82-43.13-18.96-69.6-52-79.7-97.76-6.18-28.04-5.87-56.3,2.47-83.91,14.3-47.31,46.11-77.57,92.99-92.18,23.34-7.26,47.36-9.43,71.62-6.07,26.37,3.64,50.05,13.42,69.12,32.67q6.71,6.77-.43,12.6c-12.52,10.2-25.06,20.38-37.58,30.58-3.38,2.74-3.36,2.73-6.21-.26-9.37-9.87-20.93-15.84-34.18-18.34-17.68-3.33-34.83-1.46-51.1,6.5-17.3,8.47-29.99,21.74-37.56,39.22-13.53,31.26-13.25,62.73,3.16,92.8,15.71,28.8,40.87,42.6,73.83,40.57,19.52-1.2,35.77-9.7,48.05-25.2,1.13-1.42,2.25-2.84,3.72-4.69,16.55,12.27,32.71,24.29,48.94,36.2,2.1,1.54,2.32,2.57,.69,4.72Z"/><path class="cls-3" d="M651.16,403.31c-30.13,76.77-60.29,153.53-90.45,230.29-2.87,7.28-6.15,14.36-9.93,21.23-9.17,16.64-23.45,25.92-41.9,29.16-22.36,3.93-44.44,2.41-66.24-3.8-3.66-1.04-3.75-1.08-3.11-5.04,2.26-13.95,4.58-27.89,6.89-41.84,.13-.8,.09-1.67,.9-2.48,5.71,1.93,11.48,4.03,17.63,4.84,8,1.05,15.97,.99,23.84-.76,7.71-1.71,13.49-6.24,17.53-13.01,3.85-6.46,5.98-13.73,9.45-20.34,3.08-5.89,2.45-10.86-.17-16.82-26.51-60.28-52.72-120.7-78.98-181.08-.65-1.48-1.73-2.86-1.46-4.67,1.63-.64,3.29-.32,4.92-.32,17.66-.03,35.33-.04,52.99,0,6.47,.02,5.13-.88,7.43,4.97,15.34,38.99,30.61,78,45.93,117,.64,1.64,.87,3.54,2.49,4.77,1.55-1.36,1.66-3.27,2.21-4.92,12.85-38.47,25.66-76.95,38.47-115.43,.26-.79,.56-1.57,.83-2.35,1.38-4.01,1.38-4.05,5.45-4.05,15.16-.01,30.33-.01,45.49-.01h10.76c.56,2.04-.44,3.32-.97,4.66Z"/><path class="cls-3" d="M844.53,490.34c-.24-15.62-2.92-30.81-9.02-45.22-10.39-24.56-28.05-41.32-54.03-48.66-19.58-5.53-39.27-4.77-58.76,.23-26.78,6.85-48.25,21.46-62.56,45.42-12.33,20.66-15.73,43.21-12.66,66.85,3.62,27.88,16.88,50.11,39.72,66.56,30.39,21.88,77.76,27.24,114.11,9.18,12.38-6.15,23.29-14.16,32.22-24.79,1.4-1.67,1.98-2.76-.22-4.32-12.63-8.96-25.21-18-37.74-27.09-1.78-1.28-2.82-1.02-4.04,.66-2.57,3.5-5.63,6.58-8.87,9.45-15.75,13.92-39.68,15.82-57.09,4.38-10.56-6.95-16.35-17.09-19.18-29.29,2.17-.77,4.01-.5,5.82-.5,35.66-.02,71.32,0,106.98,0,7.33,0,14.66-.09,21.99,.04,2.6,.05,3.5-.81,3.44-3.42-.16-6.48-.02-12.98-.11-19.47Zm-63.93-18.02c-20.81,.02-41.63,.04-62.45,0-3.79-.01-7.62,.42-11.5-.35-.26-4.25,1.16-7.98,2.75-11.62,6.31-14.43,17.62-22.14,33.04-23.9,11.95-1.36,22.87,1.13,31.82,9.75,6.27,6.04,9.66,13.44,10.36,22.06,.33,4,.19,4.07-4.02,4.07Z"/><path class="cls-2" d="M1673.59,443.58c-10.55-23.87-28.01-40.41-53.56-47.07-31.34-8.17-61.24-3.54-88.91,13.07-20.8,12.49-34.64,30.77-41.58,54.15-4.58,15.43-5.34,31.09-3.04,46.92,3.68,25.34,15.42,46.2,35.66,61.99,32.29,25.2,80.33,30.21,117.24,12.41,12.45-6,23.43-13.98,32.38-24.58,2.59-3.06,2.55-3.15-.81-5.58-12.16-8.76-24.34-17.49-36.51-26.23-.67-.48-1.38-.9-2.01-1.3-.43,.24-.79,.33-.99,.55-.98,1.13-1.91,2.3-2.88,3.44-12.93,15.2-29.02,21.77-48.94,17.97-19.7-3.75-32.22-20.8-34.17-35.99,1.19-2,3.1-.93,4.62-.93,41.61-.07,83.21-.05,124.81-.06,1.5,0,3-.01,4.5-.04,1.37-.03,2.16-.71,2.21-2.12,.04-1.16,.05-2.33,.06-3.49,.01-10.13,.03-20.27,.04-30.4-.25-11.51-3.54-22.34-8.12-32.71Zm-53.25,28.73c-24.48,.02-48.96-.01-73.44-.04-.32,0-.63-.17-1.61-.44,.4-7.71,3.41-14.27,7.88-20.2,6.2-8.21,14.6-13.08,24.67-14.74,13.47-2.21,25.91-.16,35.96,10.07,5.98,6.07,9,13.49,9.68,21.88,.27,3.28,.06,3.47-3.14,3.47Z"/><path class="cls-3" d="M1314.33,484.15c-.08-12.99-1.54-25.88-4.82-38.51-6.84-26.38-23.15-43.15-50.01-49.31-16.07-3.7-32.29-4.49-48.64-2.72-19.28,2.08-37.46,7.6-53.99,17.95-5.48,3.43-10.69,7.24-15.54,12.2,10.9,10.38,21.61,20.57,32.97,31.38,.52-.62,1.46-2.03,2.66-3.17,13.21-12.67,28.75-19.53,47.32-18.72,8.22,.36,15.71,2.85,22.3,7.74,7.78,5.77,12.01,13.61,13.03,23.22,.24,2.24-.34,3.54-2.93,3.24-1.32-.16-2.66,0-4-.02-16.67-.14-33.29,.62-49.81,3.01-13.72,1.97-27.1,5.05-39.77,10.98-31.3,14.66-39.46,44.88-31.48,72.12,5.24,17.9,17.89,29.22,34.88,35.89,17.27,6.78,35.06,7.29,53.02,3.24,15.84-3.57,29.06-11.29,38.31-25.02,.37-.55,.83-1.03,1.84-.48,0,6.34-.03,12.81,.01,19.29,.02,4.02,.06,4.07,4.16,4.08,15.49,.02,30.99,.02,46.48,0,4.12-.01,4.18-.06,4.18-4.06-.02-34.11,.05-68.22-.17-102.33Zm-54.72,35.72c-.26,9.48-3.74,17.64-11.16,23.57-14.49,11.58-31.01,14.4-48.41,8.6-14.32-4.77-16.59-17.4-11.52-28.14,1.98-4.21,5.56-6.98,9.52-9.25,7.49-4.31,15.77-6.07,24.21-7.29,6.77-.98,13.6-1.12,20.42-1.17,4.33,0,8.66-.03,12.99,0,3.95,.03,3.98,.07,4.01,4.19,.02,3.16,.03,6.32-.06,9.48Z"/><path class="cls-2" d="M1480.3,398.67c.02,15.31,.02,30.62-.01,45.92,0,4.23-.07,4.26-4.12,3.27-13.81-3.37-27.66-3.92-41.53-.45-12.33,3.09-20.94,10.44-25.45,22.44-2.78,7.39-4.24,15.04-4.54,22.89-1,26.28-.33,52.57-.51,78.85-.03,4.66,.01,9.32,0,13.98-.02,4.94-.03,4.96-4.81,4.97-9.83,.02-19.66,.01-29.49,.01-7.33,0-14.66-.08-21.98,.04-2.49,.04-3.82-.61-3.45-3.33,.11-.82,.02-1.66,.02-2.49,0-60.4-.01-120.8,0-181.19,0-6.75-.56-5.9,5.81-5.91,16.33-.03,32.65-.02,48.98-.01,4.31,.01,4.35,.05,4.36,4.37,.03,8.6,.01,17.21,.01,25.81,.35,.11,.69,.23,1.04,.34,1.59-2.5,3.12-5.03,4.77-7.48,8.21-12.23,18.57-21.67,33.21-25.64,11.17-3.03,22.4-2.85,33.68-1.06,3.98,.63,4,.79,4.01,4.67Z"/><path class="cls-6" d="M809.99,768.88c-12.88-29.94-25.78-59.88-38.7-89.8-3.89-9.01-7.92-17.96-11.66-27.03-1.21-2.93-2.92-4.02-6.03-3.81-3.48,.24-7.02,.34-10.48-.02-3.72-.39-5.21,1.36-6.57,4.5-11.4,26.23-22.96,52.4-34.47,78.58-5.69,12.94-11.39,25.88-17.05,38.83-2.14,4.88-2.09,4.91,3.46,4.92,5.17,.01,10.34-.17,15.49,.06,3.12,.14,4.78-.84,5.88-3.88,2.66-7.34,5.77-14.52,8.52-21.84,.9-2.39,2.23-3.28,4.8-3.26,15.99,.09,31.99,.11,47.98-.02,2.82-.02,4.2,1.02,5.18,3.53,2.27,5.9,4.8,11.69,7.18,17.55q3.2,7.85,11.65,7.86h16.22c.73-2.73-.64-4.4-1.4-6.17Zm-45.98-41.95c-11.63,.05-23.26-.01-34.9-.05-.27,0-.54-.3-1.25-.72,6.28-16.27,12.58-32.61,18.81-48.75,1.89-.35,2,.91,2.31,1.73,5.63,14.89,11.24,29.8,16.81,44.71,1.02,2.72,.84,3.07-1.78,3.08Z"/><path class="cls-5" d="M1075.69,727.55c-1.53-13.48-7.23-24.46-18.62-32.09-11.48-7.7-24.13-9.78-37.66-7.35-23.1,4.15-37.65,23.25-36.87,44.14-.39,17.69,9,33.15,24.81,40.59,8.92,4.2,18.35,5.35,28.19,4.31,17.4-1.83,33.9-13.52,38.8-31.86,1.55-5.81,2.03-11.68,1.35-17.74Zm-46.67,30.58c-14.53-.08-25.27-11.07-25.22-25.98,.04-12.04,8.1-25.56,25.61-25.62,14.52-.04,25.2,11.26,25.2,26.03s-10.97,25.66-25.59,25.57Z"/><path class="cls-5" d="M1467.6,710.89c-4.84-11.66-13.26-19.31-25.62-22.43-9.68-2.44-19.2-1.59-28.45,1.86-35.19,13.12-35.49,55.49-16.34,73.94,8.3,8.01,18.21,12.31,29.42,13.29,15.47,1.35,28.87-3.43,39.4-15.25,1.27-1.43,1.41-2.4-.23-3.58-3.37-2.43-6.65-4.99-10.01-7.45-3.2-2.35-3.28-2.38-5.99,.39-6.38,6.5-14.14,9.14-23.11,8.37-11.06-.94-19.5-9.67-19.53-19.75,3.09-.74,6.26-.34,9.39-.34,16.98-.05,33.97-.01,50.95-.04,4.13-.01,4.1-.07,4.21-4.11,.24-8.56-.78-16.94-4.09-24.9Zm-21.6,13.14c-5.82,.03-11.65,.01-17.47,.01-6.32-.01-12.64,.04-18.96-.03-3.01-.03-3.59-.71-2.8-3.6,3.36-12.3,11.92-17.21,23.24-16.81,2.59,.09,5.29,.41,7.8,1.46,6.45,2.67,10.68,7.15,11.95,14.16,.87,4.76,.88,4.79-3.76,4.81Z"/><path class="cls-5" d="M1300.15,766.45c-.08-16.63,.49-33.26-.57-49.87-.95-14.82-9.01-24.62-23.3-28.01-8.55-2.03-17.19-1.99-25.74-.08-7.21,1.6-13.92,4.5-19.77,9.13q-4.02,3.18-.57,6.7c1.75,1.77,3.51,3.54,5.29,5.29,2.65,2.6,2.68,2.61,5.56,.54,2.17-1.57,4.47-2.96,6.96-3.89,8.35-3.12,16.78-4.24,25.13-.03,4.66,2.34,7.27,6.2,7.68,11.45,.31,3.9,.01,4.27-3.94,4.31-7.48,.1-14.98-.03-22.41,1.1-7.28,1.1-14.35,2.82-20.82,6.52-16.92,9.7-16.03,34.61,.14,43.3,9.2,4.95,18.89,6.09,28.99,3.42,7-1.85,12.59-5.84,17.81-11.39,0,2.45,.08,4.91-.02,7.36-.08,2.2,.95,2.94,3.01,2.88,2.67-.07,5.33,.06,7.99-.03,2.65-.09,5.95,1.11,7.77-.57,2.06-1.91,.83-5.37,.81-8.13Zm-20.86-24.77c-.14,2.15-.45,4.31-.89,6.41-.42,1.95-1.28,3.76-2.3,5.5-4.88,8.3-22.07,10.9-29.69,4.86-6.01-4.76-5.32-13,1.51-17.01,4.7-2.76,10-3.51,15.29-4.14,2.15-.25,4.32-.24,6.05-.33,2.1,0,3.77-.01,5.43,.01,4.65,.04,4.89,.24,4.6,4.7Z"/><path class="cls-5" d="M876.28,771.49c-9.29,4.77-19.34,5.92-29.65,4.97-6.52-.6-12.81-2.07-18.5-5.51-.99-.6-1.95-1.27-2.88-1.97q-6.78-5.11-.67-10.69c1.97-1.79,3.88-3.65,5.8-5.5,2.95-2.82,2.83-3.57,6.24-.14,3.59,3.61,7.91,6.06,12.97,7.05,4.9,.95,9.65,.58,14.05-1.93,6.37-3.64,6.4-11.12,.05-14.81-5-2.9-10.7-3.58-16.19-4.85-4.4-1.02-8.75-2.16-12.83-4.07-7.97-3.75-12.02-9.91-12.34-18.88-.43-12.21,5.19-20.53,15.97-25.2,13.23-5.72,26.6-5.22,39.6,1.2,2.84,1.4,5.36,3.34,7.57,5.65,1.19,1.24,1.73,2.38,.24,3.81-4.16,4.03-8.28,8.1-12.73,12.46-1.27-1.45-2.15-2.68-3.25-3.67-5.81-5.3-12.54-6.56-19.96-4.2-3.4,1.08-5.82,3.25-6.11,7.08-.25,3.35,1.52,5.8,5.44,7.52,3.68,1.62,7.61,2.4,11.52,3.22,5.06,1.05,10.06,2.33,14.82,4.38,9.16,3.96,13.96,10.81,14.27,20.91,.32,10.58-4.11,18.37-13.43,23.17Z"/><path class="cls-5" d="M1554.42,749.81c-.13,10.24-5.23,17.64-14.39,22.18-7.33,3.63-15.23,4.57-23.89,4.86-8.47-.42-17.3-1.77-24.93-7.22-1.89-1.35-3.54-3.02-5.29-4.56-1.2-1.05-1.44-2.12-.13-3.33,3.78-3.51,7.56-7.02,11.29-10.58,1.65-1.58,2.64-.4,3.71,.7,3.82,3.88,8.25,6.69,13.66,7.79,4.35,.89,8.6,.69,12.72-1.13,3.61-1.59,6.23-3.99,6.22-8.2,0-3.97-2.44-6.35-5.81-7.99-4.7-2.29-9.84-3.03-14.86-4.17-3.25-.74-6.44-1.64-9.59-2.72-8.09-2.78-14.15-7.65-15.45-16.57-1.43-9.82,.76-18.54,9-24.98,4-3.13,8.48-5.25,13.43-6.32,13.07-2.84,25.49-1.77,36.76,6.12,.41,.28,.82,.57,1.21,.88,4.79,3.85,4.8,3.96,.46,8.11-2.65,2.53-5.3,5.06-7.99,7.54-2.73,2.52-2.77,2.51-5.46-.13-5.75-5.66-12.52-7.22-20.2-5.02-1.11,.32-2.21,.8-3.16,1.44-4.77,3.21-4.7,9.32,.2,12.36,4.04,2.52,8.74,3.12,13.27,4.14,5.04,1.14,10.05,2.34,14.8,4.38,9.84,4.23,14.55,11.95,14.42,22.42Z"/><path class="cls-5" d="M964.08,766.21c-2.89,2.84-6.07,5.21-9.85,6.65-13.08,4.97-26.28,5.3-39.54,.73-4.82-1.67-8.78-4.64-12.4-8.17-1.47-1.43-1.74-2.54-.02-4.05,3.49-3.09,6.9-6.27,10.19-9.56,1.66-1.67,2.81-1.76,4.47,.03,3.71,3.99,8.22,6.73,13.63,7.82,4.34,.87,8.63,.77,12.72-1.06,3.36-1.5,6.02-3.74,6.2-7.72,.19-4.18-2.17-6.78-5.76-8.51-4.86-2.36-10.19-3-15.32-4.34-3.22-.83-6.42-1.72-9.58-2.76-16.26-5.34-18.06-20.64-13.1-32.42,2.87-6.84,8.46-11.07,15.22-13.6,11.16-4.19,22.46-4.22,33.69-.13,2.02,.74,3.99,1.69,5.83,2.8,8.93,5.41,9.01,6.17,1.69,13.13-2.64,2.52-5.33,5-8.36,7.84-3.57-4.15-7.21-7.2-12.17-8.27-4.2-.91-8.29-.74-12.22,1.02-2.91,1.3-4.87,3.34-5,6.81-.14,3.51,1.76,5.53,4.63,7,3.91,1.99,8.21,2.63,12.41,3.59,5.52,1.26,10.94,2.71,16.15,5.05,15.83,7.1,16.09,28.69,6.49,38.12Z"/><path class="cls-5" d="M1351.46,711.19c-.04,11.97-.11,23.94,.04,35.91,.1,8.51,3.81,11.84,12.4,12.11,3.55,.11,6.85-1.05,10.71-1.56,0,5.15-.03,10.11,.01,15.07,.01,1.63-.87,2.39-2.29,2.78-10,2.75-19.98,3.5-29.9-.27-6.66-2.54-10.2-7.75-11.75-14.45-.79-3.4-1.16-6.86-1.15-10.38,.06-12.63,.04-25.27,0-37.9-.01-4.33-.06-4.35-4.44-4.39-3.49-.04-6.99-.06-10.48,0-1.9,.03-2.73-.79-2.72-2.67,.03-4.49,.06-8.98-.02-13.46-.04-2.19,.95-2.9,3.02-2.85,3.82,.09,7.66-.11,11.48,.06,2.69,.11,3.44-1.04,3.39-3.53-.11-5.98,.04-11.97-.06-17.95-.04-2.49,.76-3.63,3.42-3.56,4.99,.13,9.99,.14,14.98,0,2.7-.08,3.42,1.1,3.38,3.57-.11,5.82-.07,11.64-.02,17.46,.03,3.86,.09,3.92,3.84,3.95,5.33,.06,10.66,0,15.98,.03,3.95,.04,3.99,.08,4.05,3.76,.07,3.65-.09,7.32,.05,10.97,.11,2.58-.83,3.56-3.45,3.5-5.49-.14-10.98-.08-16.48-.03-3.88,.04-3.97,.09-3.99,3.83Z"/><path class="cls-5" d="M1166.22,763.48c1.83,1.81,1.37,3-.44,4.4-5.93,4.57-12.66,7.45-19.93,8.78-16.46,3-31.07-.92-43.08-12.81-8.75-8.66-12.33-19.5-12.28-32.07-.6-18.91,11.76-38.25,35.52-43.43,14.46-3.16,27.78-.55,39.49,8.84,3.32,2.66,3.32,2.72,.47,5.62-3.04,3.09-6.09,6.15-9.19,9.18-2.98,2.91-3.19,3.07-6.05,.41-11.9-11.08-30.98-4.6-36.52,8.98-6.59,16.17,2.17,37.98,24.68,36.71,4.62-.26,8.88-1.75,12.19-5.03,2.42-2.38,2.74-2.61,5.47,.32,3.18,3.4,6.35,6.82,9.67,10.1Z"/><path class="cls-6" d="M1202.88,693.78v39.36c0,12.45,.01,24.91-.01,37.36,0,5.3-.02,5.31-5.08,5.33-4.15,.02-8.31,.06-12.47-.01-3.56-.06-3.65-.14-3.7-3.64-.07-4.98-.02-9.96-.02-14.95v-61.28c0-1.16,.05-2.32,0-3.48-.07-1.8,.65-2.9,2.54-2.91,5.32-.03,10.64-.03,15.96,0,2.99,0,2.78,2.19,2.78,4.22Z"/><path class="cls-5" d="M1205.75,660.11c.08,7.42-5.51,12.87-13.38,13.04-7.7,.16-13.61-5.31-13.72-12.71-.11-7.27,5.82-13.05,13.42-13.08,7.73-.03,13.6,5.44,13.68,12.75Z"/></svg>