<?xml version="1.0" encoding="UTF-8"?>
<svg width="61px" height="61px" viewBox="0 0 61 61" version="1.1" xmlns="http://www.w3.org/2000/svg" xmlns:xlink="http://www.w3.org/1999/xlink">
    <!-- Generator: sketchtool 52.5 (67469) - http://www.bohemiancoding.com/sketch -->
    <title>95670423-9A6B-45E3-87FB-EFC9BC4CD1E9</title>
    <desc>Created with sketchtool.</desc>
    <g id="Member-Benefits-–-Desktop" stroke="none" stroke-width="1" fill="none" fill-rule="evenodd">
        <g id="Member-Benefits-–-How-to-Use" transform="translate(-215.000000, -944.000000)">
            <g id="Callout:-3up-with-icons" transform="translate(125.000000, 825.000000)">
                <g id="heart/solid" transform="translate(90.000000, 119.000000)">
                    <path d="M60.6394606,30.3364909 C60.6394606,47.0727333 47.0727333,60.6394606 30.3364909,60.6394606 C13.6002485,60.6394606 0.0335212121,47.0727333 0.0335212121,30.3364909 C0.0335212121,13.6002485 13.6002485,0.0335212121 30.3364909,0.0335212121 C47.0727333,0.0335212121 60.6394606,13.6002485 60.6394606,30.3364909 Z" id="Stroke-1" fill="#00B6F1"></path>
                    <path d="M40.5431939,12.6689333 C42.4727091,12.6689333 44.4022242,13.0991758 46.1213152,13.9145697 C48.6445273,15.1094788 50.5928303,17.3377212 51.6092545,20.1916 C52.7891333,23.4982667 52.6050121,27.3610545 51.1170121,30.5211758 C47.7314364,37.711297 31.5926485,51.9994788 30.8993758,52.6119636 C30.7603455,52.7453576 30.5611939,52.8430545 30.3845879,52.8618424 C30.3413758,52.8656 30.3019212,52.8674788 30.2624667,52.8674788 C30.0370121,52.8674788 29.8378606,52.7998424 29.6969515,52.6758424 C29.0111939,52.0727515 12.8855576,37.8484485 9.46428485,30.5794182 C7.97440606,27.4155394 7.79028485,23.5489939 8.97204242,20.2385697 C9.99222424,17.3865697 11.9424061,15.1583273 14.4637394,13.9671758 C16.1809515,13.1517818 18.1085879,12.7215394 20.038103,12.7215394 C24.2259212,12.7215394 28.1563455,14.7337212 30.0520424,17.8449939 L30.2756182,18.2094788 L30.4954364,17.8431152 C32.3779818,14.699903 36.3215576,12.6689333 40.5431939,12.6689333 M30.2756182,20.8247515 C29.9449515,20.8134788 29.6762848,20.6594182 29.5203455,20.3926303 L28.6523455,18.9083879 C27.0985879,16.2160848 23.7167697,14.4763273 20.038103,14.4763273 C18.3622242,14.4763273 16.6919818,14.8502061 15.2058606,15.5547515 C13.1053758,16.5467515 11.4745879,18.4217818 10.614103,20.8322667 C9.58452727,23.7124485 9.74422424,27.0754788 11.0387091,29.8297818 C13.8568909,35.8118424 26.3320424,47.3006303 30.0877394,50.6805697 L30.2605879,50.8346303 L30.4334364,50.6805697 C34.1985273,47.2968727 46.7056182,35.7949333 49.5407091,29.7696606 C50.8351939,27.0209939 50.9948909,23.6617212 49.9690727,20.7834182 C49.1085879,18.3710545 47.4778,16.4960242 45.3791939,15.5040242 C43.8930727,14.7976 42.2209515,14.4237212 40.5431939,14.4237212 C36.8664061,14.4237212 33.4845879,16.1578424 31.9327091,18.8426303 L31.0665879,20.3287515 L30.9876788,20.4489939 C30.826103,20.6838424 30.5593152,20.8247515 30.2756182,20.8247515" id="Fill-3" fill="#FFFFFF"></path>
                </g>
            </g>
        </g>
    </g>
</svg>