<?xml version="1.0" encoding="UTF-8"?>
<svg width="61px" height="61px" viewBox="0 0 61 61" version="1.1" xmlns="http://www.w3.org/2000/svg" xmlns:xlink="http://www.w3.org/1999/xlink">
    <!-- Generator: sketchtool 52.5 (67469) - http://www.bohemiancoding.com/sketch -->
    <title>47A5B9C5-A910-4B4D-A6CD-997334BF80D4</title>
    <desc>Created with sketchtool.</desc>
    <g id="Member-Benefits-–-Desktop" stroke="none" stroke-width="1" fill="none" fill-rule="evenodd">
        <g id="Member-Benefits-–-How-to-Use" transform="translate(-918.000000, -944.000000)">
            <g id="Callout:-3up-with-icons" transform="translate(125.000000, 825.000000)">
                <g id="Icon/card/solid" transform="translate(793.000000, 119.000000)">
                    <g id="card/solid">
                        <path d="M30.332999,60.6405879 C47.0692414,60.6405879 60.6359687,47.0719818 60.6359687,30.3376182 C60.6359687,13.6013758 47.0692414,0.032769697 30.332999,0.032769697 C13.5967566,0.032769697 0.0300292969,13.6013758 0.0300292969,30.3376182 C0.0300292969,47.0719818 13.5967566,60.6405879 30.332999,60.6405879" id="Stroke-1" fill="#00B6F1"></path>
                        <polygon id="Fill-3" fill="#FFFFFF" points="17.6770303 23.5025879 27.2193939 23.5025879 27.2193939 21.8248303 17.6770303 21.8248303"></polygon>
                        <polygon id="Fill-4" fill="#FFFFFF" points="16.9987879 34.679497 43.1966061 34.679497 43.1966061 32.9735576 16.9987879 32.9735576"></polygon>
                        <polygon id="Fill-5" fill="#FFFFFF" points="16.9987879 38.8485273 43.1966061 38.8485273 43.1966061 37.3022848 16.9987879 37.3022848"></polygon>
                        <path d="M11.5696545,20.4550061 C11.5696545,20.4550061 11.6974121,17.2310061 14.4968061,17.1051273 L46.0510485,17.1051273 C46.0510485,17.1051273 49.1040788,17.1051273 49.1040788,20.1581576 L49.1040788,40.9826424 C49.1040788,40.9826424 48.5949273,43.4419758 46.3046848,43.5697333 L14.7504424,43.5697333 C14.7504424,43.5697333 11.6542,43.3574303 11.5696545,40.7703394 L11.5696545,20.4550061 Z M47.649897,24.5620364 L47.649897,20.9585212 C47.649897,18.1422182 44.8354727,18.3338545 44.8354727,18.3338545 L15.7462,18.3338545 C12.7363818,18.3564 13.0482606,21.2309455 13.0482606,21.2309455 L13.2342606,25.6667636 L47.649897,25.6291879 L47.649897,24.5620364 Z M47.649897,27.9814303 L13.0482606,27.9814303 L13.0482606,39.958703 C13.1271697,42.3447636 15.9810485,42.200097 15.9810485,42.200097 L45.0703212,42.200097 C47.1802,42.0836121 47.649897,40.154097 47.649897,40.154097 L47.649897,28.7817939 L47.649897,27.9814303 Z" id="Fill-6" fill="#FFFFFF"></path>
                    </g>
                </g>
            </g>
        </g>
    </g>
</svg>