<?xml version="1.0" encoding="UTF-8"?>
<svg width="62px" height="62px" viewBox="0 0 62 62" version="1.1" xmlns="http://www.w3.org/2000/svg" xmlns:xlink="http://www.w3.org/1999/xlink">
    <!-- Generator: sketchtool 52.5 (67469) - http://www.bohemiancoding.com/sketch -->
    <title>C2EF5317-5F51-4293-837D-42C20A2195B3</title>
    <desc>Created with sketchtool.</desc>
    <g id="Member-Benefits-–-Desktop" stroke="none" stroke-width="1" fill="none" fill-rule="evenodd">
        <g id="Member-Benefits-–-How-to-Use" transform="translate(-568.000000, -944.000000)">
            <g id="Callout:-3up-with-icons" transform="translate(125.000000, 825.000000)">
                <g id="Icon/pin/light_blue" transform="translate(443.000000, 119.000000)">
                    <g id="pin/light_blue">
                        <path d="M61.6295087,30.8338104 C61.6295087,47.8444175 47.840376,61.6335501 30.829769,61.6335501 C13.8191619,61.6335501 0.0300292969,47.8444175 0.0300292969,30.8338104 C0.0300292969,13.8232034 13.8191619,0.0340707402 30.829769,0.0340707402 C47.840376,0.0340707402 61.6295087,13.8232034 61.6295087,30.8338104 Z" id="Stroke-1" fill="#00B6F1"></path>
                        <path d="M30.5366786,11.7852914 L30.8383934,11.7891106 C34.7721441,11.8674037 38.4442812,13.4771861 41.1788107,16.3205621 C43.9133403,19.1639382 45.3760845,22.8952725 45.2977914,26.8271136 C45.2538708,29.0174106 44.7268246,31.1332338 43.7281103,33.1268433 C39.1871108,43.0452417 30.7410045,52.8070539 30.6569826,52.9025333 L30.0058132,53.6510917 L29.3794685,52.8757991 C29.2992658,52.774591 21.2770879,42.8046337 17.0664471,32.5463287 C16.1765792,30.5775438 15.746922,28.4540823 15.7908425,26.2313222 C15.9493383,18.266432 22.56415,11.7852914 30.5366786,11.7852914 Z M30.0554625,51.0139511 L30.2655171,50.7580664 C32.6677784,47.842126 38.6390591,40.2152328 42.2214456,32.3954712 C43.1132231,30.6138259 43.5848912,28.7271533 43.623083,26.792741 C43.766302,19.5935954 38.0165335,13.6184956 30.8040209,13.4733669 L30.5385882,13.4714573 C23.4712042,13.4714573 17.6068604,19.2097683 17.4655509,26.2656948 C17.4254496,28.2325701 17.8092767,30.1230619 18.6017556,31.8760634 C21.8900656,39.8829645 27.5672697,47.7428274 29.8549558,50.750428 L30.0554625,51.0139511 Z" id="Fill-3" fill="#FFFFFF"></path>
                        <path d="M30.5460356,18.525563 L30.7045313,18.5274726 C35.0030132,18.6153137 38.4288135,22.1996097 38.3428821,26.5190971 C38.2588602,30.7545625 34.7624052,34.2013683 30.5517643,34.2013683 L30.391359,34.1994587 C28.311818,34.1574478 26.3716769,33.3019525 24.9280286,31.7914687 C23.4824707,30.2790752 22.7109973,28.2950136 22.7530082,26.2059247 C22.8370301,21.9704592 26.3334851,18.525563 30.5460356,18.525563 Z M30.5479452,32.5152024 L30.5498547,32.5152024 C33.8572606,32.5152024 36.6013381,29.8112262 36.6681737,26.4866341 C36.7350092,23.0952064 34.0444002,20.2804741 30.6682492,20.211729 L30.5460356,20.211729 C27.2386297,20.211729 24.4926426,22.9157051 24.4258071,26.2402973 C24.3933441,27.8806331 25.0005929,29.436947 26.134888,30.622801 C27.2672735,31.8105645 28.7911245,32.4827394 30.4276411,32.5152024 L30.5460356,32.5152024 L30.5479452,32.5152024 Z" id="Fill-5" fill="#FFFFFF"></path>
                    </g>
                </g>
            </g>
        </g>
    </g>
</svg>