<?xml version="1.0" encoding="UTF-8"?>
<svg width="53px" height="43px" viewBox="0 0 53 43" version="1.1" xmlns="http://www.w3.org/2000/svg" xmlns:xlink="http://www.w3.org/1999/xlink">
    <title>logo/white</title>
    <g id="Symbols" stroke="none" stroke-width="1" fill="none" fill-rule="evenodd">
        <g id="Nav-Mobile" transform="translate(-134.000000, -21.000000)">
            <g id="Group-4" transform="translate(6.000000, 2.000000)">
                <g id="logo/white" transform="translate(128.000000, 19.000000)">
                    <path d="M30.8456565,7.98534432 C33.0647861,6.83704886 35.8011565,7.70095795 36.9553787,9.91301477 C38.107638,12.1265375 37.2414806,14.8526398 35.0169528,16.0004466 C32.7973324,17.1472761 30.0580176,16.283367 28.9062491,14.0698443 C27.7530083,11.8563216 28.6221102,9.1326625 30.8456565,7.98534432 Z" id="Fill-1" fill="#00B6F1"></path>
                    <path d="M26.4704083,0.280575 C27.7870657,0.0895181818 29.007538,1.000825 29.1945102,2.31330227 C29.3839361,3.62235909 28.4672324,4.83906364 27.1530287,5.02718864 C25.8363713,5.21384773 24.6124639,4.30449545 24.4274546,2.99201818 C24.237538,1.68100682 25.1532602,0.466256818 26.4704083,0.280575" id="Fill-3" fill="#9FCC3B"></path>
                    <path d="M48.5270944,28.8743045 C47.9053259,30.6798159 46.6480481,32.1237364 44.984437,32.941225 C43.3193537,33.7592023 41.4501222,33.8539977 39.7202611,33.2041114 C37.9904,32.5561795 36.8042796,31.2441909 36.0220389,29.5080659 C35.236363,27.7743841 35.1455759,25.8261909 35.7683259,24.0221455 C36.3900944,22.2171227 37.4510759,20.7727136 39.114687,19.9562023 C40.7782981,19.1377364 42.6465481,19.0444068 44.3773907,19.6923386 C46.1072519,20.3417364 47.4921222,21.6542136 48.2777981,23.3893614 C49.0615111,25.1225545 49.1483722,27.0697705 48.5270944,28.8743045 M49.9993167,22.5440205 C48.9972241,20.3280545 47.2300667,18.6525205 45.0212426,17.8228159 C42.8119278,16.9970205 40.426437,17.1167364 38.3034926,18.1594864 C36.1795667,19.2012591 34.5709185,21.04635 33.7783722,23.3502705 C33.3744926,24.5234864 33.2787981,26.3768841 33.2729093,27.4704523 L33.2729093,42.809725 L34.4104463,42.809725 C35.0852148,42.809725 35.4125389,42.4100205 35.4125389,41.7689295 L35.4125389,32.4481909 C36.38715,33.6267818 37.6355944,34.5332023 39.0754278,35.0736341 C41.2847426,35.9013841 43.6721963,35.7816682 45.7961222,34.736475 C47.9190667,33.6956795 49.5252611,31.8505886 50.3197704,29.5466682 C51.1137889,27.2422591 50.9989556,24.7551 49.9993167,22.5440205" id="Fill-5" fill="#FFFFFF"></path>
                    <path d="M20.0467593,22.3199807 C20.0467593,20.5340148 22.0116852,19.5811739 23.5427963,19.5684693 C25.2476296,19.5533216 26.0671667,20.0057989 27.0098796,21.1829239 C27.3519259,21.6085261 27.7548241,21.7810148 28.2691204,21.4516739 L29.350713,20.7807761 C29.337463,20.7543898 29.3296111,20.7309352 29.3163611,20.7060148 C28.8221852,19.7277648 28.1218981,19.0070261 27.2621204,18.4876057 C26.2340185,17.8694807 24.9821389,17.5577307 23.5427963,17.5577307 C20.8324352,17.5577307 17.9076204,19.1585034 17.9076204,22.5066398 C17.9076204,29.0529011 27.6826852,25.7409239 27.6826852,30.4665261 C27.6826852,32.436708 25.7550556,33.6280034 23.8995648,33.6280034 C22.2791389,33.6280034 20.7058241,32.9952193 19.5623981,31.5791511 C19.1320185,31.0846511 18.7139074,31.0949125 18.2025556,31.4457534 C18.1888148,31.4565034 17.2294167,32.1405943 17.2294167,32.1405943 C17.2416852,32.1635602 17.2559167,32.1831057 17.266713,32.2050943 C17.779537,33.128617 18.4832593,33.8576625 19.3194815,34.402492 C20.5949167,35.2346398 22.1780463,35.6382534 23.8657037,35.6382534 C27.0025185,35.6382534 29.8218241,33.8522875 29.8218241,30.3179807 C29.8218241,23.3607761 20.0467593,26.9708216 20.0467593,22.3199807" id="Fill-7" fill="#FFFFFF"></path>
                    <path d="M8.03426019,32.7800239 L13.2994176,18.6266716 C13.4402602,18.2621489 13.7347046,18.0075693 14.1778435,18.0099951 L15.954325,18.0099951 L9.60561204,34.1936489 L9.50599167,34.4477398 L9.461825,34.5625693 C9.31901944,34.9114557 8.97501019,35.1909557 8.59321389,35.1909557 L7.47088981,35.1909557 C7.08713056,35.1909557 6.74263056,34.9065693 6.60276944,34.5625693 L6.55860278,34.4477398 L6.45800093,34.1936489 L0.110269444,18.0099951 L1.88626019,18.0099951 C2.32988981,18.0075693 2.62433426,18.2621489 2.76468611,18.6266716 L8.02984352,32.7800239 L8.03426019,32.7800239 Z" id="Fill-9" fill="#FFFFFF"></path>
                    <path d="M51.4975972,34.2272182 C51.6428565,34.2272182 51.7881157,34.1519682 51.7881157,33.9438091 C51.7881157,33.7336955 51.6757361,33.6599114 51.4975972,33.6599114 L50.9499306,33.6599114 L50.9499306,34.2272182 L51.4975972,34.2272182 Z M52.1424306,35.1952068 L51.7414954,35.1952068 L51.4043565,34.5487409 L50.9499306,34.5487409 L50.9499306,35.1908091 L50.6010139,35.1908091 L50.6010139,33.3383886 L51.4926898,33.3383886 C51.8862639,33.3383886 52.1326157,33.5748886 52.1326157,33.9438091 C52.1326157,34.2076727 51.9795046,34.42365 51.7468935,34.5067182 L52.1424306,35.1952068 Z M51.2875602,32.9377068 C50.5391806,32.9377068 49.9316435,33.5519227 49.9316435,34.3058886 C49.9316435,35.0652295 50.5391806,35.6799341 51.2875602,35.6799341 C52.0349583,35.6799341 52.6429861,35.0652295 52.6429861,34.3058886 C52.6429861,33.5519227 52.0349583,32.9377068 51.2875602,32.9377068 L51.2875602,32.9377068 Z M51.2875602,35.9907068 C50.3522083,35.9907068 49.5954861,35.2367409 49.5954861,34.3058886 C49.5954861,33.3804114 50.3522083,32.6269341 51.2875602,32.6269341 C52.2224213,32.6269341 52.9806157,33.3804114 52.9806157,34.3058886 C52.9806157,35.2367409 52.2224213,35.9907068 51.2875602,35.9907068 L51.2875602,35.9907068 Z" id="Fill-11" fill="#FFFFFF"></path>
                </g>
            </g>
        </g>
    </g>
</svg>