<?xml version="1.0" encoding="UTF-8"?>
<svg width="80px" height="80px" viewBox="0 0 80 80" version="1.1" xmlns="http://www.w3.org/2000/svg" xmlns:xlink="http://www.w3.org/1999/xlink">
    <!-- Generator: sketchtool 49.3 (51167) - http://www.bohemiancoding.com/sketch -->
    <title>30C8E94F-2855-4AF6-9656-499E991B5E78</title>
    <desc>Created with sketchtool.</desc>
    <defs>
        <path d="M80,40 C80,62.0918842 62.0918842,80 40,80 C17.9081158,80 0,62.0918842 0,40 C0,17.9081158 17.9081158,0 40,0 C62.0918842,0 80,17.9081158 80,40 Z" id="path-1"></path>
    </defs>
    <g id="FAD-Desktop" stroke="none" stroke-width="1" fill="none" fill-rule="evenodd">
        <g id="VSP-Member-FAD-Detail-Doctors" transform="translate(-458.000000, -1004.000000)">
            <g id="Image_Icon" transform="translate(458.000000, 1004.000000)">
                <mask id="mask-2" fill="white">
                    <use xlink:href="#path-1"></use>
                </mask>
                <use id="Mask" fill="#FAFAFA" xlink:href="#path-1"></use>
                <g id="icon" mask="url(#mask-2)">
                    <g transform="translate(23.000000, 20.000000)">
                        <path d="M0.775666097,31.2444444 C0.347480477,31.2444444 0,30.882622 0,30.4379727 C0,27.042073 2.44469329,25.3343147 4.28409801,24.3447521 C6.0461603,23.3955131 7.19620859,23.0816431 8.20950649,22.8037373 C9.29790502,22.5062146 10.157639,22.2719019 11.5251428,21.2605428 C11.8737442,21.0022539 12.357975,21.0872604 12.6068159,21.4501726 C12.8545358,21.8130849 12.7727098,22.3165848 12.4241084,22.5748737 C10.8256982,23.7573356 9.74626692,24.0526786 8.60518587,24.364369 C7.66810949,24.6204783 6.60661268,24.911462 4.99699344,25.7767843 C2.61394991,27.0595102 1.55133219,28.4969915 1.55133219,30.4379727 C1.55133219,30.882622 1.20385172,31.2444444 0.775666097,31.2444444" id="Fill-1" stroke="none" fill="#9FA1A4" fill-rule="evenodd"></path>
                        <path d="M0.775666097,31.2444444 C0.347480477,31.2444444 0,30.882622 0,30.4379727 C0,27.042073 2.44469329,25.3343147 4.28409801,24.3447521 C6.0461603,23.3955131 7.19620859,23.0816431 8.20950649,22.8037373 C9.29790502,22.5062146 10.157639,22.2719019 11.5251428,21.2605428 C11.8737442,21.0022539 12.357975,21.0872604 12.6068159,21.4501726 C12.8545358,21.8130849 12.7727098,22.3165848 12.4241084,22.5748737 C10.8256982,23.7573356 9.74626692,24.0526786 8.60518587,24.364369 C7.66810949,24.6204783 6.60661268,24.911462 4.99699344,25.7767843 C2.61394991,27.0595102 1.55133219,28.4969915 1.55133219,30.4379727 C1.55133219,30.882622 1.20385172,31.2444444 0.775666097,31.2444444 Z" id="Stroke-3" stroke="#9FA1A4" stroke-width="0.45" fill="none"></path>
                        <path d="M33.2243339,31.2444444 C32.7961483,31.2444444 32.4486678,30.882622 32.4486678,30.4379727 C32.4486678,28.4969915 31.3860501,27.0595102 29.0030066,25.7767843 C27.3933873,24.911462 26.3318905,24.6204783 25.3948141,24.364369 C24.2537331,24.0526786 23.1743018,23.7573356 21.5758916,22.5748737 C21.2272902,22.3165848 21.1454642,21.8130849 21.3931841,21.4501726 C21.642025,21.0872604 22.1262558,21.0022539 22.4748572,21.2605428 C23.842361,22.2719019 24.702095,22.5062146 25.7904935,22.8037373 C26.8037914,23.0816431 27.9538397,23.3955131 29.715902,24.3447521 C31.5553067,25.3343147 34,27.042073 34,30.4379727 C34,30.882622 33.6525195,31.2444444 33.2243339,31.2444444" id="Fill-5" stroke="none" fill="#9FA1A4" fill-rule="evenodd"></path>
                        <path d="M33.2243339,31.2444444 C32.7961483,31.2444444 32.4486678,30.882622 32.4486678,30.4379727 C32.4486678,28.4969915 31.3860501,27.0595102 29.0030066,25.7767843 C27.3933873,24.911462 26.3318905,24.6204783 25.3948141,24.364369 C24.2537331,24.0526786 23.1743018,23.7573356 21.5758916,22.5748737 C21.2272902,22.3165848 21.1454642,21.8130849 21.3931841,21.4501726 C21.642025,21.0872604 22.1262558,21.0022539 22.4748572,21.2605428 C23.842361,22.2719019 24.702095,22.5062146 25.7904935,22.8037373 C26.8037914,23.0816431 27.9538397,23.3955131 29.715902,24.3447521 C31.5553067,25.3343147 34,27.042073 34,30.4379727 C34,30.882622 33.6525195,31.2444444 33.2243339,31.2444444 Z" id="Stroke-7" stroke="#9FA1A4" stroke-width="0.45" fill="none"></path>
                        <path d="M16.2491671,21.1111111 C13.1833558,21.1111111 12.0188646,18.476682 10.9922595,16.1518472 C10.84791,15.8261402 10.7024832,15.4969804 10.5505931,15.1701224 C10.4708777,15.1079734 10.3103696,15.0101462 10.1972599,14.9422426 C9.78575609,14.6913446 9.35917096,14.4335411 9.19327675,13.9628196 C8.77100056,12.7681768 8.54047223,11.0441161 8.50061453,9.86673693 C8.48230154,9.26826461 8.87441514,9.02312114 9.52506518,8.6156996 C9.5961627,8.57081418 9.69203663,8.51096694 9.77929268,8.45457244 C9.7739065,7.50392217 9.75020733,6.81222628 9.73189433,6.29201573 C9.70819516,5.59111256 9.6941911,5.16872922 9.74805286,4.78892947 C10.1972599,1.61127163 12.3840473,0 16.2491671,0 C16.6639026,0 17,0.377497925 17,0.842464882 C17,1.30858275 16.6639026,1.68608067 16.2491671,1.68608067 C12.1772182,1.68608067 11.4350031,3.60694664 11.2303284,5.05248748 C11.2001659,5.26885824 11.2130927,5.6509598 11.2324829,6.22756486 C11.2529504,6.83524445 11.2809585,7.66735115 11.2809585,8.87005034 C11.278804,9.4466554 10.8942311,9.68719524 10.2565079,10.0877113 C10.1907965,10.129144 10.1046177,10.1820858 10.0238251,10.2338767 C10.0916909,11.1856779 10.2758981,12.3918298 10.5484386,13.2250874 C10.6378491,13.292991 10.8037433,13.3942709 10.9114668,13.4587218 C11.2949626,13.6912052 11.6579908,13.9110287 11.8389663,14.3000357 C12.0113239,14.6660246 12.1750637,15.0366171 12.336649,15.4026059 C13.4386605,17.8966242 14.2175016,19.4250304 16.2491671,19.4250304 C16.6639026,19.4250304 17,19.8025284 17,20.2686462 C17,20.7336132 16.6639026,21.1111111 16.2491671,21.1111111" id="Fill-9" stroke="none" fill="#9FA1A4" fill-rule="evenodd"></path>
                        <path d="M16.2491671,21.1111111 C13.1833558,21.1111111 12.0188646,18.476682 10.9922595,16.1518472 C10.84791,15.8261402 10.7024832,15.4969804 10.5505931,15.1701224 C10.4708777,15.1079734 10.3103696,15.0101462 10.1972599,14.9422426 C9.78575609,14.6913446 9.35917096,14.4335411 9.19327675,13.9628196 C8.77100056,12.7681768 8.54047223,11.0441161 8.50061453,9.86673693 C8.48230154,9.26826461 8.87441514,9.02312114 9.52506518,8.6156996 C9.5961627,8.57081418 9.69203663,8.51096694 9.77929268,8.45457244 C9.7739065,7.50392217 9.75020733,6.81222628 9.73189433,6.29201573 C9.70819516,5.59111256 9.6941911,5.16872922 9.74805286,4.78892947 C10.1972599,1.61127163 12.3840473,0 16.2491671,0 C16.6639026,0 17,0.377497925 17,0.842464882 C17,1.30858275 16.6639026,1.68608067 16.2491671,1.68608067 C12.1772182,1.68608067 11.4350031,3.60694664 11.2303284,5.05248748 C11.2001659,5.26885824 11.2130927,5.6509598 11.2324829,6.22756486 C11.2529504,6.83524445 11.2809585,7.66735115 11.2809585,8.87005034 C11.278804,9.4466554 10.8942311,9.68719524 10.2565079,10.0877113 C10.1907965,10.129144 10.1046177,10.1820858 10.0238251,10.2338767 C10.0916909,11.1856779 10.2758981,12.3918298 10.5484386,13.2250874 C10.6378491,13.292991 10.8037433,13.3942709 10.9114668,13.4587218 C11.2949626,13.6912052 11.6579908,13.9110287 11.8389663,14.3000357 C12.0113239,14.6660246 12.1750637,15.0366171 12.336649,15.4026059 C13.4386605,17.8966242 14.2175016,19.4250304 16.2491671,19.4250304 C16.6639026,19.4250304 17,19.8025284 17,20.2686462 C17,20.7336132 16.6639026,21.1111111 16.2491671,21.1111111 Z" id="Stroke-11" stroke="#9FA1A4" stroke-width="0.45" fill="none"></path>
                        <path d="M16.9008265,21.1111111 C16.4860945,21.1111111 16.15,20.7336132 16.15,20.2686462 C16.15,19.8025284 16.4860945,19.4250304 16.9008265,19.4250304 C18.9324746,19.4250304 19.7102318,17.8977751 20.8122339,15.4049077 C20.974895,15.037768 21.1386334,14.6671755 21.3109895,14.3000357 C21.4919635,13.9110287 21.8549886,13.6912052 22.2384811,13.4587218 C22.3451264,13.3942709 22.5120965,13.292991 22.600429,13.2250874 C22.8740444,12.3918298 23.05825,11.1856779 23.1261153,10.2338767 C23.0453233,10.1820858 22.9591452,10.1279931 22.8934345,10.0877113 C22.2557167,9.68719524 21.871147,9.44550449 21.8689926,8.87235215 C21.8689926,7.66965297 21.8970004,6.83754626 21.9174677,6.23101758 C21.9368578,5.65211071 21.9497845,5.27000915 21.918545,5.05363838 C21.7149493,3.60694664 20.9727406,1.68608067 16.9008265,1.68608067 C16.4860945,1.68608067 16.15,1.30858275 16.15,0.842464882 C16.15,0.377497925 16.4860945,0 16.9008265,0 C20.7659132,0 22.9526819,1.61127163 23.4018851,4.78777857 C23.4557464,5.16872922 23.4417425,5.59226347 23.4180435,6.29546845 C23.4008079,6.81567901 23.3771089,7.50392217 23.3717228,8.45457244 C23.4589781,8.51096694 23.553774,8.56966327 23.6248709,8.61454869 C24.2765926,9.02312114 24.6687028,9.26941552 24.6493127,9.86558602 C24.6094554,11.0429652 24.3800063,12.765875 23.9566565,13.9628196 C23.7907637,14.4335411 23.3641822,14.6913446 22.9526819,14.9422426 C22.8395732,15.0101462 22.6790665,15.1079734 22.5993518,15.1701224 C22.4474629,15.4969804 22.3009602,15.8272911 22.1566119,16.154149 C21.1300156,18.4778329 19.9655343,21.1111111 16.9008265,21.1111111" id="Fill-13" stroke="none" fill="#9FA1A4" fill-rule="evenodd"></path>
                        <path d="M16.9008265,21.1111111 C16.4860945,21.1111111 16.15,20.7336132 16.15,20.2686462 C16.15,19.8025284 16.4860945,19.4250304 16.9008265,19.4250304 C18.9324746,19.4250304 19.7102318,17.8977751 20.8122339,15.4049077 C20.974895,15.037768 21.1386334,14.6671755 21.3109895,14.3000357 C21.4919635,13.9110287 21.8549886,13.6912052 22.2384811,13.4587218 C22.3451264,13.3942709 22.5120965,13.292991 22.600429,13.2250874 C22.8740444,12.3918298 23.05825,11.1856779 23.1261153,10.2338767 C23.0453233,10.1820858 22.9591452,10.1279931 22.8934345,10.0877113 C22.2557167,9.68719524 21.871147,9.44550449 21.8689926,8.87235215 C21.8689926,7.66965297 21.8970004,6.83754626 21.9174677,6.23101758 C21.9368578,5.65211071 21.9497845,5.27000915 21.918545,5.05363838 C21.7149493,3.60694664 20.9727406,1.68608067 16.9008265,1.68608067 C16.4860945,1.68608067 16.15,1.30858275 16.15,0.842464882 C16.15,0.377497925 16.4860945,0 16.9008265,0 C20.7659132,0 22.9526819,1.61127163 23.4018851,4.78777857 C23.4557464,5.16872922 23.4417425,5.59226347 23.4180435,6.29546845 C23.4008079,6.81567901 23.3771089,7.50392217 23.3717228,8.45457244 C23.4589781,8.51096694 23.553774,8.56966327 23.6248709,8.61454869 C24.2765926,9.02312114 24.6687028,9.26941552 24.6493127,9.86558602 C24.6094554,11.0429652 24.3800063,12.765875 23.9566565,13.9628196 C23.7907637,14.4335411 23.3641822,14.6913446 22.9526819,14.9422426 C22.8395732,15.0101462 22.6790665,15.1079734 22.5993518,15.1701224 C22.4474629,15.4969804 22.3009602,15.8272911 22.1566119,16.154149 C21.1300156,18.4778329 19.9655343,21.1111111 16.9008265,21.1111111 Z" id="Stroke-15" stroke="#9FA1A4" stroke-width="0.45" fill="none"></path>
                        <path d="M16.8112863,38 C10.1628426,38 4.43462222,35.8570169 0.247267103,31.8021674 C-0.0658801351,31.4983521 -0.0839680622,30.9862062 0.206569267,30.6585197 C0.498237091,30.3308332 0.988872114,30.3123872 1.30201935,30.6162026 C5.19770665,34.3878528 10.560777,36.3821834 16.8112863,36.3821834 C23.6281739,36.3821834 28.9697648,34.4757422 32.6857034,30.7171127 C32.9920676,30.4057019 33.4838331,30.4122123 33.7811534,30.7344735 C34.0796042,31.0556497 34.0716908,31.5677956 33.764196,31.8781212 C29.7486762,35.9405661 24.0453267,38 16.8112863,38" id="Fill-17" stroke="none" fill="#9FA1A4" fill-rule="evenodd"></path>
                        <path d="M16.8112863,38 C10.1628426,38 4.43462222,35.8570169 0.247267103,31.8021674 C-0.0658801351,31.4983521 -0.0839680622,30.9862062 0.206569267,30.6585197 C0.498237091,30.3308332 0.988872114,30.3123872 1.30201935,30.6162026 C5.19770665,34.3878528 10.560777,36.3821834 16.8112863,36.3821834 C23.6281739,36.3821834 28.9697648,34.4757422 32.6857034,30.7171127 C32.9920676,30.4057019 33.4838331,30.4122123 33.7811534,30.7344735 C34.0796042,31.0556497 34.0716908,31.5677956 33.764196,31.8781212 C29.7486762,35.9405661 24.0453267,38 16.8112863,38 Z" id="Stroke-19" stroke="#9FA1A4" stroke-width="0.45" fill="none"></path>
                    </g>
                </g>
            </g>
        </g>
    </g>
</svg>